<?xml version="1.0" encoding="utf-8"?>
<!-- Generator: Adobe Illustrator 24.3.0, SVG Export Plug-In . SVG Version: 6.00 Build 0)  -->
<svg version="1.1" id="Layer_1" xmlns="http://www.w3.org/2000/svg" xmlns:xlink="http://www.w3.org/1999/xlink" x="0px" y="0px"
	 viewBox="0 0 800 800" style="enable-background:new 0 0 800 800;" xml:space="preserve">
<style type="text/css">
	.st0{fill:#FFC700;}
</style>
<g>
	<path class="st0" d="M464.72,363.02l34.01-42.38H262.44c-31.01,0-60.35,14.08-79.76,38.27l-64.87,80.86l39.71-119.13h-52.91
		L51.7,479.36h95.05l80.5-100.34c8.12-10.12,20.39-16.01,33.37-16.01h37.84c0,0-35.28,13.12-39.65,26.24l-30.04,90.11h52.91
		l38.78-116.35h43.2l-38.78,116.35h52.91l38.78-116.35H464.72z"/>
	<polygon class="st0" points="665.19,441.94 705.63,320.64 652.72,320.64 599.81,479.36 599.81,479.36 735.82,479.36 748.3,441.94 	
		"/>
	<polygon class="st0" points="625.69,320.64 530.64,320.64 403.3,479.36 464.01,479.36 559.58,360.24 519.87,479.36 572.78,479.36 	
		"/>
</g>
</svg>
